<svg width="24" height="24" viewBox="0 0 24 24" fill="none" xmlns="http://www.w3.org/2000/svg">
<mask id="mask0_904_188" style="mask-type:alpha" maskUnits="userSpaceOnUse" x="4" y="2" width="16" height="21">
<path fill-rule="evenodd" clip-rule="evenodd" d="M17.34 8.67H16.3871V6.76429C16.3871 4.1344 14.2527 2 11.6229 2C8.99297 2 6.85857 4.1344 6.85857 6.76429H8.76429C8.76429 5.18254 10.0411 3.90571 11.6229 3.90571C13.2046 3.90571 14.4814 5.18254 14.4814 6.76429V8.67H5.90571C4.85757 8.67 4 9.52757 4 10.5757V20.1043C4 21.1524 4.85757 22.01 5.90571 22.01H17.34C18.3881 22.01 19.2457 21.1524 19.2457 20.1043V10.5757C19.2457 9.52757 18.3881 8.67 17.34 8.67ZM5.90571 20.1043V10.5757H17.34V20.1043H5.90571ZM13.5286 15.34C13.5286 16.3881 12.671 17.2457 11.6229 17.2457C10.5747 17.2457 9.71714 16.3881 9.71714 15.34C9.71714 14.2919 10.5747 13.4343 11.6229 13.4343C12.671 13.4343 13.5286 14.2919 13.5286 15.34Z" fill="white"/>
</mask>
<g mask="url(#mask0_904_188)">
<rect x="-0.797363" y="0.00488281" width="24" height="24" fill="#66788A"/>
</g>
</svg>
