<svg width="24" height="24" viewBox="0 0 24 24" fill="none" xmlns="http://www.w3.org/2000/svg">
<mask id="mask0_904_166" style="mask-type:alpha" maskUnits="userSpaceOnUse" x="2" y="4" width="20" height="17">
<path fill-rule="evenodd" clip-rule="evenodd" d="M16.1027 10.0726H20.27C20.7485 10.0726 21.14 10.4641 21.14 10.9426L21.1139 11.1775L18.9041 19.2424C18.6953 19.9732 18.0254 20.5126 17.225 20.5126H5.915C5.1146 20.5126 4.4447 19.9732 4.2446 19.2424L2.0348 11.1775C2.0087 11.0992 2 11.0209 2 10.9426C2 10.4641 2.3915 10.0726 2.87 10.0726H7.0373L10.8479 4.3741C11.0132 4.1218 11.2916 4 11.57 4C11.8484 4 12.1268 4.1218 12.2921 4.3654L16.1027 10.0726ZM14.006 10.0726L11.57 6.4186L9.134 10.0726H14.006ZM17.225 18.7726L5.9237 18.7813L4.0097 11.8126H19.139L17.225 18.7726ZM9.83 15.2926C9.83 14.3356 10.613 13.5526 11.57 13.5526C12.527 13.5526 13.31 14.3356 13.31 15.2926C13.31 16.2496 12.527 17.0326 11.57 17.0326C10.613 17.0326 9.83 16.2496 9.83 15.2926Z" fill="white"/>
</mask>
<g mask="url(#mask0_904_166)">
<rect x="-0.199707" y="0.247559" width="24" height="24" fill="#66788A"/>
</g>
</svg>
