<svg width="24" height="24" viewBox="0 0 24 24" fill="none" xmlns="http://www.w3.org/2000/svg">
<mask id="mask0_906_315" style="mask-type:alpha" maskUnits="userSpaceOnUse" x="4" y="2" width="17" height="20">
<path fill-rule="evenodd" clip-rule="evenodd" d="M11.83 18.5213V21.6533L13.0741 21.053C17.5372 18.9041 20.53 14.5715 20.53 10.265C20.53 5.7062 16.8238 2 12.265 2C7.7062 2 4 5.7062 4 10.265C4 14.6759 7.4713 18.2951 11.83 18.5213ZM5.74 10.265C5.74 6.6632 8.6632 3.74 12.265 3.74C15.8668 3.74 18.79 6.6632 18.79 10.265C18.79 13.5014 16.7368 16.79 13.57 18.791V16.79H12.265C8.6632 16.79 5.74 13.8668 5.74 10.265ZM13.135 13.745V15.485H11.395V13.745H13.135ZM12.9353 9.67486C12.2146 10.2272 11.395 10.8555 11.395 12.44H13.135C13.135 11.487 13.7536 10.9464 14.3885 10.3916C15.0577 9.80679 15.745 9.20614 15.745 8.09C15.745 6.1673 14.1877 4.61 12.265 4.61C10.3423 4.61 8.785 6.1673 8.785 8.09H10.525C10.525 7.133 11.308 6.35 12.265 6.35C13.222 6.35 14.005 7.133 14.005 8.09C14.005 8.85492 13.5006 9.24154 12.9353 9.67486Z" fill="white"/>
</mask>
<g mask="url(#mask0_906_315)">
<rect x="0.265137" y="0.00488281" width="24" height="24" fill="#66788A"/>
</g>
</svg>
