<svg width="24" height="24" viewBox="0 0 24 24" fill="none" xmlns="http://www.w3.org/2000/svg">
<mask id="mask0_904_144" style="mask-type:alpha" maskUnits="userSpaceOnUse" x="2" y="5" width="20" height="14">
<path fill-rule="evenodd" clip-rule="evenodd" d="M8.67 11.67C10.509 11.67 12.005 10.174 12.005 8.335C12.005 6.49599 10.509 5 8.67 5C6.83099 5 5.335 6.49599 5.335 8.335C5.335 10.174 6.83099 11.67 8.67 11.67ZM2 16.6725C2 14.4523 6.44031 13.3375 8.67 13.3375C10.8997 13.3375 15.34 14.4523 15.34 16.6725V18.34H2V16.6725ZM8.67 15.2432C6.96439 15.2432 5.03009 15.8816 4.22969 16.4343H13.1103C12.3099 15.8816 10.3756 15.2432 8.67 15.2432ZM10.0993 8.335C10.0993 7.54413 9.46087 6.90571 8.67 6.90571C7.87913 6.90571 7.24071 7.54413 7.24071 8.335C7.24071 9.12587 7.87913 9.76429 8.67 9.76429C9.46087 9.76429 10.0993 9.12587 10.0993 8.335ZM15.3781 13.3947C16.4834 14.1951 17.2457 15.2623 17.2457 16.6725V18.34H21.0571V16.6725C21.0571 14.7477 17.7221 13.6519 15.3781 13.3947ZM17.7221 8.335C17.7221 10.174 16.2262 11.67 14.3871 11.67C13.8726 11.67 13.3962 11.5461 12.9579 11.3365C13.5582 10.4885 13.9107 9.44984 13.9107 8.335C13.9107 7.22016 13.5582 6.18154 12.9579 5.3335C13.3962 5.12387 13.8726 5 14.3871 5C16.2262 5 17.7221 6.49599 17.7221 8.335Z" fill="white"/>
</mask>
<g mask="url(#mask0_904_144)">
<rect x="-0.443359" y="-0.330078" width="24" height="24" fill="#66788A"/>
</g>
</svg>
